<?xml version="1.0" encoding="utf-8"?>
<!-- Generator: Adobe Illustrator 25.0.1, SVG Export Plug-In . SVG Version: 6.00 Build 0)  -->
<svg version="1.0" id="katman_1" xmlns="http://www.w3.org/2000/svg" xmlns:xlink="http://www.w3.org/1999/xlink" x="0px" y="0px"
	 viewBox="0 0 145.4 100.4" style="enable-background:new 0 0 145.4 100.4;" xml:space="preserve">
<style type="text/css">
	.st0{stroke:#000000;stroke-width:0.5;}
	.st1{fill:none;}
</style>
<g id="Group_119" transform="translate(-37.922 -33.819)">
	<g id="Group_117" transform="translate(38.172 34.069)">
		<path id="Path_3" d="M125.6,56.7c-0.6,0.6-1.3,1.1-2,1.4c-2.1,1-4.5,1.1-6.7,0.3c-2-0.7-3.3-2.7-3.2-4.8c-0.1-2,0-4,0.1-5.9
			c0.2-2.1,1.9-3.8,4-3.9c1.1-0.1,2.1,0,3.2,0c1.8,0.2,3.3,1.4,3.8,3.2c0.4,1.5,0.5,3.1,0.4,4.6c0,0.2,0,0.5,0,0.7
			c0,0.4-0.1,0.5-0.5,0.5c-2.5,0.1-5,0.1-7.5,0.1c-0.4,0-0.5,0.1-0.5,0.5c0,1.1,0.8,2.1,2,2.4c1.5,0.4,3.1,0.1,4.4-0.7
			c0.2-0.1,0.4-0.3,0.7-0.4c0.2-0.2,0.4-0.1,0.6,0c0,0,0.1,0.1,0.1,0.1c0.4,0.6,0.8,1.1,1.2,1.7L125.6,56.7z M119.4,50.4
			c0.8,0,1.5,0,2.3,0c0.3,0,0.5-0.1,0.4-0.5c-0.1-0.6-0.1-1.1-0.2-1.7c-0.1-0.8-0.7-1.3-1.5-1.4c-0.8,0-1.5,0-2.3,0
			c-0.7,0-1.4,0.6-1.4,1.3c0,0.6-0.1,1.1-0.1,1.7c0,0.4,0.1,0.5,0.5,0.5C117.9,50.4,118.7,50.4,119.4,50.4"/>
		<path id="Path_4" d="M74.3,51.5c0-2.3,0-4.5,0-6.8c0-0.2,0.1-0.5,0.4-0.5c0,0,0,0,0.1,0c1.1-0.2,2.2-0.3,3.3-0.3
			c1-0.1,2.1,0,3.1,0.3c0.5,0.1,0.9,0.3,1.4,0.5c0.2,0.1,0.4,0.1,0.6,0c1.2-0.7,2.7-1,4.1-0.8c0.9,0,1.7,0.2,2.5,0.5
			c1.4,0.6,2.3,1.8,2.4,3.3c0.1,0.5,0.1,1,0.1,1.5c0,3.1,0,6.1,0,9.2c0,0.5-0.1,0.6-0.6,0.6h-1.9c-0.5,0-0.6-0.1-0.6-0.6
			c0-3.1,0-6.3,0-9.4c0-0.3,0-0.7-0.1-1c-0.1-0.4-0.4-0.7-0.9-0.8c-0.8-0.2-1.6-0.2-2.4-0.1c-0.9,0-0.9,0-0.9,1v10.4
			c0,0.5-0.1,0.6-0.6,0.6c-0.6,0-1.3,0-1.9,0c-0.4,0-0.5-0.1-0.5-0.5c0-3.1,0-6.2,0-9.4c0-0.4,0-0.7-0.1-1.1c-0.2-0.7-0.8-0.9-1.5-1
			c-0.8-0.1-1.6-0.1-2.3,0c-0.3,0-0.4,0.2-0.4,0.6c0,3.3,0,6.6,0,9.9c0,0.3,0,0.7,0,1s-0.1,0.5-0.5,0.5c-0.7,0-1.4,0-2.1,0
			c-0.2,0-0.4-0.1-0.5-0.3c0,0,0-0.1,0-0.1c0-0.2,0-0.4,0-0.6L74.3,51.5z"/>
		<path id="Path_5" d="M97.4,61.8c0,0.8,0,1.6,0,2.5c0,0.5-0.1,0.6-0.5,0.6c-0.7,0-1.4,0-2,0c-0.4,0-0.5-0.1-0.5-0.5
			c0-4.8,0-9.7,0-14.5c0-1.6,0-3.2,0-4.8c0-0.5,0.1-0.6,0.6-0.8c0.8-0.3,1.7-0.4,2.6-0.4c1.1-0.1,2.2-0.1,3.2,0
			c2.4,0.1,4.4,1.9,4.8,4.2c0.1,0.4,0.1,0.8,0.1,1.1c0,1.3,0,2.7,0,4c0.1,2.6-1.7,4.9-4.2,5.4c-1.1,0.2-2.2,0.3-3.3,0.2
			c-0.8,0-0.8,0-0.8,0.7L97.4,61.8z M97.4,51.3c0,1.3,0,2.6,0,3.9c0,0.5,0.1,0.6,0.6,0.6c0.2,0,0.4,0,0.6,0c0.8,0.1,1.6,0,2.3-0.2
			c0.9-0.2,1.6-0.9,1.7-1.8c0-1.6,0-3.2,0-4.8c0-1.1-0.8-2-2-2.1c-0.9-0.1-1.7,0-2.6,0c-0.5,0-0.6,0.1-0.6,0.6
			C97.4,48.8,97.4,50.1,97.4,51.3"/>
		<path id="Path_6" d="M61.8,43.8c1.3,0,2.6,0.2,3.8,0.6c0.3,0.1,0.5,0.4,0.5,0.7c0,0.6,0,1.2,0,1.8c0,0.3-0.2,0.5-0.4,0.5
			c-0.1,0-0.1,0-0.2,0c-1.3-0.2-2.6-0.4-3.9-0.5c-0.6-0.1-1.2,0-1.7,0.2c-0.4,0.1-0.7,0.5-0.8,1c0,0.5,0.2,0.9,0.6,1.1
			c0.7,0.4,1.4,0.6,2.1,0.7c0.9,0.2,1.7,0.4,2.6,0.8c1.6,0.7,2.5,2.3,2.3,4c-0.2,2.1-1.5,3.3-3.4,4c-1,0.4-2.1,0.5-3.2,0.4
			c-1.2,0-2.4-0.1-3.6-0.3c-0.5-0.1-0.6-0.2-0.6-0.7c0-0.6,0-1.2,0-1.8c0-0.5,0.2-0.7,0.8-0.7c1.6,0.2,3.1,0.3,4.7,0.2
			c0.4,0,0.9-0.2,1.3-0.4c0.4-0.2,0.7-0.6,0.7-1.1c0-0.5-0.3-0.9-0.7-1c-0.6-0.2-1.2-0.4-1.9-0.5c-1-0.2-1.9-0.5-2.8-0.9
			c-2.1-1.2-2.8-3.8-1.7-5.8c0.1-0.1,0.1-0.2,0.2-0.4c0.7-0.9,1.8-1.5,3-1.8C60.2,43.9,61,43.8,61.8,43.8"/>
		<path id="Path_7" d="M108.2,49.2c0-3.1,0-6.2,0-9.2c0-0.3,0.1-0.3,0.3-0.3c0.8,0,1.6,0,2.4,0c0.2,0,0.3,0.1,0.3,0.3
			c0,5.5,0,11,0,16.5c0,0.7,0,1.3,0,2c0,0.4-0.1,0.5-0.5,0.5c-0.6,0-1.3,0-1.9,0c-0.5,0-0.6-0.1-0.6-0.6
			C108.2,55.3,108.2,52.2,108.2,49.2L108.2,49.2z"/>
		<path id="Path_8" d="M68.7,51.5c0-2.3,0-4.5,0-6.8c0-0.2,0-0.3,0.3-0.3c0.8,0,1.6,0,2.4,0c0.2,0,0.3,0.1,0.3,0.3c0,3,0,5.9,0,8.9
			c0,1.6,0,3.2,0,4.8c0,0.5-0.1,0.6-0.6,0.6c-0.6,0-1.3,0-1.9,0c-0.4,0-0.5-0.1-0.5-0.6C68.7,56.1,68.7,53.8,68.7,51.5L68.7,51.5z"
			/>
		<path id="Path_9" d="M68.7,41.4c0-0.4,0-0.9,0-1.3c0-0.2,0-0.2,0.2-0.2c0.9,0,1.7,0,2.6,0c0.2,0,0.2,0,0.2,0.2c0,0.9,0,1.8,0,2.7
			c0,0.2-0.1,0.2-0.2,0.2c-0.9,0-1.7,0-2.6,0c-0.2,0-0.2-0.1-0.2-0.2C68.7,42.3,68.7,41.8,68.7,41.4"/>
		<path id="Path_12" class="st0" d="M47.9,65.9H23.4c-2.1,0-3.8-1.7-3.8-3.8V37.8c0-2.1,1.7-3.8,3.8-3.8h24.5c2.1,0,3.8,1.7,3.8,3.8
			v24.3C51.7,64.2,50,65.9,47.9,65.9 M23.4,34.2c-2,0-3.6,1.6-3.6,3.6v24.3c0,2,1.6,3.6,3.6,3.6h24.5c2,0,3.6-1.6,3.6-3.6V37.8
			c0-2-1.6-3.6-3.6-3.6H23.4z"/>
	</g>
	<g id="Group_116" transform="translate(42 35.222)">
		<g id="Group_118" transform="translate(0.174 6.32)">
			<path id="Path_10" d="M42.9,43.6c0,2.1,0,4.1,0,6.2c0,0.3-0.2,0.6-0.5,0.7c-1.8,0.8-3.6,1.2-5.6,1.2c-1.2,0-2.3-0.2-3.4-0.7
				c-1.4-0.7-2.4-2.1-2.6-3.6c-0.1-0.6-0.2-1.3-0.2-1.9c0-2.7,0-5.4,0-8.2c0-0.3,0.1-0.3,0.3-0.3c0.8,0,1.7,0,2.5,0
				c0.2,0,0.3,0.1,0.3,0.3c0,2.8,0,5.5,0,8.3c0,0.5,0.1,1,0.2,1.5c0.2,0.9,1,1.5,1.9,1.5c1.2,0.1,2.4,0,3.5-0.3
				c0.2,0,0.3-0.2,0.3-0.4c0-3.5,0-7.1,0-10.6c0-0.3,0.1-0.4,0.4-0.4c0.8,0,1.7,0,2.5,0c0.3,0,0.3,0.1,0.3,0.3
				C42.9,39.5,42.9,41.5,42.9,43.6"/>
			<path id="Path_11" d="M24.2,43.3c0,0.8,0,1.7,0,2.7c0,0.2,0,0.4,0.1,0.6c0.2,1,1,1.8,2.1,1.8c0.6,0.1,1.3,0.1,1.9-0.1
				c0.2-0.1,0.4,0,0.4,0.2c0,0,0,0,0,0.1c0.2,0.6,0.4,1.2,0.8,1.8c0.2,0.3,0.1,0.4-0.3,0.6c-0.4,0.2-0.8,0.3-1.2,0.3
				c-1.3,0.2-2.7,0.1-4-0.4c-1.6-0.6-2.7-2.1-2.9-3.7c-0.1-0.7-0.2-1.3-0.2-2c0-1.7,0-3.4,0-5.1c0-0.2,0-0.3-0.3-0.3
				c-0.3,0-0.6,0-0.9,0c-0.2,0-0.3,0-0.3-0.3c0-0.8,0-1.6,0-2.4c0-0.2,0-0.3,0.2-0.3c0.3,0,0.6,0,0.9,0c0.2,0,0.3,0,0.3-0.3
				c0-0.8,0-1.6,0-2.5c0-0.2,0.1-0.3,0.3-0.3c0.9,0,1.7,0,2.6,0c0.3,0,0.3,0.1,0.3,0.3c0,0.8,0,1.6,0,2.4c0,0.2,0.1,0.3,0.3,0.3
				c1.1,0,2.2,0,3.3,0c0.3,0,0.3,0.1,0.3,0.3c0,0.7,0,1.5,0,2.2c0,0.3-0.1,0.4-0.4,0.4c-1.1,0-2.2,0-3.3,0c-0.2,0-0.3,0.1-0.3,0.3
				C24.2,41.2,24.2,42.1,24.2,43.3"/>
		</g>
		<rect id="Rectangle_7" x="19.6" y="34" class="st1" width="98.3" height="29.6"/>
	</g>
</g>
</svg>
